<?xml version="1.0" encoding="utf-8"?>
<!-- Generator: Adobe Illustrator 27.0.1, SVG Export Plug-In . SVG Version: 6.00 Build 0)  -->
<svg version="1.1" id="Layer_1" xmlns="http://www.w3.org/2000/svg" xmlns:xlink="http://www.w3.org/1999/xlink" x="0px" y="0px"
	 viewBox="0 0 96 24" style="enable-background:new 0 0 96 24;" xml:space="preserve">
<style type="text/css">
	.st0{fill:#F64F00;}
	.st1{enable-background:new    ;}
	.st2{fill:none;}
</style>
<g id="squeexe">
	<g id="logoSVG">
		<g id="letters">
			<path id="bigX_1_" class="st0" d="M27.5,3c-0.3,0-0.6,0.1-0.8,0.4l-6.2,8.7l6.2,8.5c0.2,0.2,0.5,0.4,0.8,0.4h9c0,0,0,0,0.1,0
				c0,0,0,0,0,0.1V23v0.1c0,0,0,0-0.1,0h-9.2c-1,0-1.9-0.3-2.6-1.1l-5.8-7.9l-5.6,7.7c-0.7,0.8-1.5,1.2-2.5,1.2H1.3c0,0,0,0-0.1,0
				c0,0,0,0,0-0.1V21v-0.1c0,0,0,0,0.1,0h9.3c0.3,0,0.6-0.1,0.8-0.4l6-8.4l-6-8.5C11.1,3.4,10.9,3,10.6,3H1.3c0,0,0,0-0.1,0
				c0,0,0,0,0-0.1v-2c0,0,0,0,0-0.1c0,0,0,0,0.1,0h9.5c1,0,1.7,0.5,2.4,1.3L19,9.9L24.8,2c0.7-0.8,1.5-1.2,2.5-1.2h9.2
				c0.1,0,0.1,0,0.1,0.1v1.9c0,0,0,0,0,0.1c0,0,0,0-0.1,0L27.5,3z"/>
		</g>
	</g>
</g>
<g>
	<g class="st1">
		<path d="M33.9,10.6c0.2-0.2,0.4-0.3,0.6-0.3H36c0,0,0,0,0,0c0,0,0,0,0,0v3.5c0,0,0,0,0,0c0,0,0,0,0,0h-0.7c0,0,0,0,0,0
			c0,0,0,0,0,0V11h-0.6c-0.1,0-0.2,0-0.2,0.1l-2.9,2.9c0,0,0,0,0,0h-0.9c0,0,0,0,0,0c0,0,0,0,0,0L33.9,10.6z"/>
		<path d="M42.2,13.9C42.2,13.9,42.1,13.9,42.2,13.9C42.1,13.9,42.1,13.9,42.2,13.9l-4.1,0c-0.3,0-0.5-0.1-0.7-0.3
			c-0.2-0.2-0.3-0.4-0.3-0.7v-2.5c0,0,0,0,0,0s0,0,0,0h0.7c0,0,0,0,0,0c0,0,0,0,0,0V13c0,0.1,0,0.2,0.1,0.2c0.1,0.1,0.1,0.1,0.2,0.1
			h4c0,0,0,0,0,0s0,0,0,0V13.9z"/>
		<path d="M48.3,13.9C48.3,13.9,48.3,13.9,48.3,13.9C48.3,13.9,48.3,13.9,48.3,13.9l-4.1,0c-0.3,0-0.5-0.1-0.7-0.3
			c-0.2-0.2-0.3-0.4-0.3-0.7v-2.5c0,0,0,0,0,0s0,0,0,0h0.7c0,0,0,0,0,0c0,0,0,0,0,0V13c0,0.1,0,0.2,0.1,0.2c0.1,0.1,0.1,0.1,0.2,0.1
			h4c0,0,0,0,0,0s0,0,0,0V13.9z"/>
		<path d="M50.1,11.8h3.8c0,0,0,0,0,0c0,0,0,0,0,0v0.5c0,0,0,0,0,0c0,0,0,0,0,0h-3.8V13c0,0.1,0,0.2,0.1,0.2
			c0.1,0.1,0.1,0.1,0.2,0.1h4c0,0,0,0,0,0s0,0,0,0v0.5c0,0,0,0,0,0s0,0,0,0h-4c-0.3,0-0.5-0.1-0.7-0.3c-0.2-0.2-0.3-0.4-0.3-0.7
			v-1.5c0-0.3,0.1-0.5,0.3-0.7c0.2-0.2,0.4-0.3,0.7-0.3h4c0,0,0,0,0,0s0,0,0,0v0.5c0,0,0,0,0,0c0,0,0,0,0,0h-4c-0.1,0-0.2,0-0.2,0.1
			c-0.1,0.1-0.1,0.1-0.1,0.2V11.8z"/>
		<path d="M55.6,10.4C55.6,10.4,55.6,10.4,55.6,10.4C55.6,10.4,55.6,10.4,55.6,10.4l5.1,0c0,0,0,0,0,0s0,0,0,0v0.5c0,0,0,0,0,0
			c0,0,0,0,0,0h-2.2v2.9c0,0,0,0,0,0s0,0,0,0h-0.7c0,0,0,0,0,0s0,0,0,0V11h-2.2c0,0,0,0,0,0c0,0,0,0,0,0V10.4z"/>
		<path d="M66.3,11.8h4.6c0,0,0,0,0,0c0,0,0,0,0,0v0.5c0,0,0,0,0,0s0,0,0,0h-0.7V13c0,0.3-0.1,0.5-0.3,0.6s-0.4,0.3-0.6,0.3h-3.1
			c-0.3,0-0.5-0.1-0.6-0.3c-0.2-0.2-0.3-0.4-0.3-0.6v-0.3c0-0.2,0.1-0.4,0.2-0.6c-0.2-0.2-0.2-0.4-0.2-0.6v-0.3
			c0-0.3,0.1-0.5,0.3-0.6c0.2-0.2,0.4-0.3,0.6-0.3h3.2c0,0,0,0,0,0s0,0,0,0v0.5c0,0,0,0,0,0s0,0,0,0h-3.1c-0.1,0-0.2,0-0.2,0.1
			C66,11.1,66,11.2,66,11.3v0.3c0,0.1,0,0.2,0.1,0.2C66.2,11.8,66.2,11.8,66.3,11.8z M69.5,13v-0.6h-3.2c-0.1,0-0.2,0-0.2,0.1
			C66,12.6,66,12.7,66,12.8V13c0,0.1,0,0.2,0.1,0.2c0.1,0.1,0.1,0.1,0.2,0.1h2.9c0.1,0,0.2,0,0.2-0.1S69.5,13.1,69.5,13z"/>
		<path d="M79.6,10.4c0.3,0,0.5,0.1,0.7,0.3c0.2,0.2,0.3,0.4,0.3,0.7v1.5c0,0.3-0.1,0.5-0.3,0.7c-0.2,0.2-0.4,0.3-0.7,0.3h-4
			c0,0,0,0,0,0s0,0,0,0v-3.5c0,0,0,0,0,0s0,0,0,0H79.6z M79.9,11.3c0-0.1,0-0.2-0.1-0.2S79.7,11,79.6,11h-3.4v2.3h3.4
			c0.1,0,0.2,0,0.2-0.1s0.1-0.1,0.1-0.2V11.3z"/>
		<path d="M82.4,11.8h3.8c0,0,0,0,0,0s0,0,0,0v0.5c0,0,0,0,0,0s0,0,0,0h-3.8V13c0,0.1,0,0.2,0.1,0.2s0.1,0.1,0.2,0.1h4c0,0,0,0,0,0
			c0,0,0,0,0,0v0.5c0,0,0,0,0,0c0,0,0,0,0,0h-4c-0.3,0-0.5-0.1-0.7-0.3c-0.2-0.2-0.3-0.4-0.3-0.7v-1.5c0-0.3,0.1-0.5,0.3-0.7
			c0.2-0.2,0.4-0.3,0.7-0.3h4c0,0,0,0,0,0c0,0,0,0,0,0v0.5c0,0,0,0,0,0c0,0,0,0,0,0h-4c-0.1,0-0.2,0-0.2,0.1s-0.1,0.1-0.1,0.2V11.8z
			"/>
		<path d="M91.9,11c-0.1,0-0.2,0-0.2,0.1l-0.9,1.1l0.9,1.1c0.1,0.1,0.1,0.1,0.2,0.1h1c0,0,0,0,0,0s0,0,0,0v0.5c0,0,0,0,0,0s0,0,0,0
			h-1.1c-0.3,0-0.5-0.1-0.7-0.3l-0.8-0.9l-0.7,0.9c-0.2,0.2-0.4,0.3-0.7,0.3h-1.1c0,0,0,0,0,0s0,0,0,0v-0.5c0,0,0,0,0,0s0,0,0,0h1
			c0.1,0,0.2,0,0.2-0.1l0.9-1.1l-0.9-1.1C89.1,11,89,11,88.9,11h-1c0,0,0,0,0,0c0,0,0,0,0,0v-0.6c0,0,0,0,0,0s0,0,0,0H89
			c0.3,0,0.5,0.1,0.7,0.3l0.7,0.9l0.8-0.9c0.2-0.2,0.4-0.3,0.7-0.3h1.1c0,0,0,0,0,0s0,0,0,0v0.6c0,0,0,0,0,0c0,0,0,0,0,0H91.9z"/>
	</g>
	<polygon class="st2" points="29.6,11.6 37,11.6 37,11.6 	"/>
	<g class="st1">
		<path d="M27,13.4v-2.7c0,0,0,0,0,0c0,0,0,0,0,0h0.7c0,0,0,0,0,0c0,0,0,0,0,0v2.7h0.8c0.1,0,0.2,0,0.3-0.1c0.1,0,0.1-0.1,0.1-0.2
			v-2.8c0,0,0,0,0,0c0,0,0,0,0,0h0.7c0,0,0,0,0,0c0,0,0,0,0,0v2.8c0,0.2-0.1,0.4-0.4,0.5c-0.3,0.1-0.6,0.2-1,0.2h-2.1
			c-0.4,0-0.7-0.1-1-0.2c-0.3-0.1-0.4-0.3-0.4-0.5v-2.8c0,0,0,0,0,0c0,0,0,0,0,0h0.7c0,0,0,0,0,0c0,0,0,0,0,0v2.8
			c0,0.1,0,0.1,0.1,0.2c0.1,0,0.2,0.1,0.3,0.1H27z"/>
	</g>
</g>
</svg>
