<?xml version="1.0" encoding="utf-8"?>
<!-- Generator: Adobe Illustrator 27.0.1, SVG Export Plug-In . SVG Version: 6.00 Build 0)  -->
<svg version="1.1" id="Layer_1" xmlns="http://www.w3.org/2000/svg" xmlns:xlink="http://www.w3.org/1999/xlink" x="0px" y="0px"
	 viewBox="0 0 378 240" style="enable-background:new 0 0 378 240;" xml:space="preserve">
<style type="text/css">
	.st0{display:none;}
	.st1{display:inline;}
	.st2{clip-path:url(#SVGID_00000008865568452461193500000011637868874510615741_);}
	.st3{fill-rule:evenodd;clip-rule:evenodd;fill:#FFFFFF;}
	.st4{clip-path:url(#SVGID_00000121259629647978882620000016866492410903164808_);}
	.st5{fill:#F64F00;}
	.st6{enable-background:new    ;}
	.st7{fill:#FFFFFF;}
	.st8{fill:none;}
</style>
<g class="st0">
	<g class="st1">
		<defs>
			<rect id="SVGID_1_" width="378" height="240"/>
		</defs>
		<clipPath id="SVGID_00000050649489220111894580000009697970397252882098_">
			<use xlink:href="#SVGID_1_"  style="overflow:visible;"/>
		</clipPath>
		<g style="clip-path:url(#SVGID_00000050649489220111894580000009697970397252882098_);">
			<path class="st3" d="M125.1,61.1c0,16.2,6.4,31.8,17.8,43.3s26.9,18,43.1,18s31.7-6.4,43.1-17.8c11.4-11.5,17.9-27,17.9-43.2
				v-0.5c0-4.7-0.6-9.4-1.6-14c-0.4-1.6-1.5-3-3-3.9s-3.2-1.1-4.8-0.8c-1.7,0.4-3.1,1.4-4,2.8c-0.9,1.4-1.2,3.2-0.9,4.8
				c2.5,10.2,1.5,20.9-2.6,30.5c-4.2,9.6-11.3,17.6-20.5,22.8c-9.1,5.1-19.6,7.2-30,5.7c-10.4-1.4-20-6.2-27.4-13.6
				s-12.2-17-13.6-27.4c-1.4-10.4,0.5-21,5.6-30.1c5.1-9.2,13-16.4,22.6-20.6s20.2-5.2,30.4-2.7c1.7,0.4,3.5,0.1,4.9-0.8
				c1.5-0.9,2.5-2.4,2.9-4.1c0.2-0.8,0.2-1.7,0.1-2.5c-0.1-0.8-0.4-1.7-0.9-2.4c-0.4-0.7-1-1.4-1.7-1.9s-1.5-0.9-2.3-1
				c-7.8-1.9-15.8-2.2-23.7-0.9c-8,1.2-15.6,4-22.4,8.2c-6.8,4.2-12.7,9.7-17.4,16.2s-8.1,13.9-9.9,21.7
				C125.6,51.6,125.1,56.3,125.1,61.1z M216.8,16.3L216.8,16.3C216.8,16.3,216.7,16.3,216.8,16.3c-1.6,1.7-2.5,3.8-2.7,5.9v1.1
				c0,0.1,0,0.2,0,0.4l0,0l0,0c0,0.1,0,0.2,0,0.4c-0.2,2.3-0.9,4.6-2,6.6s-2.6,3.9-4.4,5.3c-1.8,1.5-3.8,2.6-6.1,3.2
				c-2.2,0.7-4.5,0.9-6.8,0.7c-0.8-0.1-1.5-0.2-2.3-0.4c-0.4-0.1-0.9-0.2-1.3-0.4c-1.9-0.5-3.8-0.7-5.7-0.6
				c-5.6,0.1-11,2.3-15.1,6.1c-0.1,0.1-0.2,0.2-0.3,0.2c-0.1,0.1-0.3,0.2-0.4,0.4c-2.3,2.1-4.1,4.6-5.3,7.4c-1.3,2.8-1.9,5.9-2,8.9
				c-0.1,3.1,0.5,6.2,1.6,9c1.1,2.9,2.9,5.5,5,7.7c2.2,2.2,4.8,3.9,7.6,5.1c2.9,1.2,5.9,1.7,9,1.7c3.1-0.1,6.1-0.7,8.9-2
				c2.8-1.3,5.3-3.1,7.4-5.4c0.9-1,1.8-2,2.6-3.1c1.8-2.7,3.1-5.7,3.7-8.9c0.6-3.2,0.5-6.5-0.2-9.6c-0.1-0.4-0.2-0.8-0.3-1.2
				c0-0.1,0-0.1,0-0.1c0-0.1,0-0.1,0-0.2v-0.1c-0.5-2.2-0.6-4.5-0.2-6.8c0.4-2.3,1.2-4.5,2.4-6.5s2.8-3.7,4.7-5s4-2.3,6.3-2.8
				c0.8-0.2,1.6-0.3,2.5-0.4l0.4-0.1c0.4,0,0.7-0.1,1.1,0h0.1c2.3-0.2,4.4-1.2,6-2.8l0.1-0.1v-0.1l0,0c0.3-0.4,0.6-0.7,0.9-1.1
				c0.8-1.1,1.3-2.2,1.6-3.5s0.3-2.6,0.1-3.8c-0.2-1.3-0.7-2.5-1.4-3.6s-1.6-2-2.7-2.8c-1.9-1.3-4.2-2-6.5-1.8s-4.5,1.2-6.1,2.8
				C216.9,16.1,216.8,16.2,216.8,16.3z M100.6,149.8c-5.4,0-10.7,2.1-14.6,6c-3.9,3.8-6.2,9-6.3,14.5c0,12.1,8.6,20.5,20.9,20.5
				c5.4,0,10.7-2.1,14.6-6c3.9-3.8,6.2-9,6.3-14.5C121.5,158.2,112.9,149.8,100.6,149.8z M109.3,170.3c0.1,1.2-0.1,2.4-0.5,3.5
				s-1,2.1-1.9,3c-0.8,0.8-1.8,1.5-2.9,2c-1.1,0.4-2.2,0.7-3.4,0.6c-1.2,0-2.3-0.2-3.4-0.7s-2.1-1.1-2.9-2c-0.8-0.8-1.4-1.8-1.9-2.9
				c-0.4-1.1-0.6-2.3-0.5-3.4c-0.1-1.2,0.1-2.4,0.5-3.5s1-2.1,1.9-3c0.8-0.8,1.8-1.5,2.9-2c1.1-0.4,2.2-0.7,3.4-0.6
				c1.2,0,2.3,0.2,3.4,0.6c1.1,0.4,2.1,1.1,2.9,2s1.4,1.9,1.9,3C109.2,167.9,109.4,169.1,109.3,170.3z M162.9,155.5
				c4-3.7,9.2-5.7,14.6-5.7c12.2,0,20.7,8.4,20.6,20.6v17.8c0,0.5-0.2,1-0.5,1.3s-0.8,0.5-1.3,0.5h-8.6c-0.5,0-0.9-0.2-1.3-0.5
				c-0.3-0.3-0.5-0.8-0.5-1.3v-17.8c0.1-1.2-0.1-2.4-0.5-3.5s-1-2.1-1.9-3c-0.8-0.8-1.8-1.5-2.9-2c-1.1-0.4-2.2-0.7-3.4-0.6
				c-1.2,0-2.3,0.2-3.4,0.6c-1.1,0.4-2.1,1.1-2.9,2c-0.8,0.9-1.5,1.9-1.9,3s-0.6,2.3-0.5,3.5v17.8c0,0.5-0.2,0.9-0.5,1.3
				c-0.3,0.3-0.8,0.5-1.3,0.5h-8.5c-0.5,0-0.9-0.2-1.3-0.5c-0.3-0.3-0.5-0.8-0.5-1.3v-17.8c0.1-1.2-0.1-2.4-0.5-3.5s-1-2.1-1.9-3
				c-0.8-0.8-1.8-1.5-2.9-2c-1.1-0.4-2.3-0.6-3.4-0.6c-1.2,0-2.3,0.2-3.4,0.6c-1.1,0.4-2.1,1.1-2.9,2c-0.8,0.8-1.4,1.9-1.9,3
				c-0.4,1.1-0.6,2.3-0.5,3.5v17.8c0,0.5-0.2,0.9-0.5,1.3c-0.3,0.3-0.8,0.5-1.3,0.5h-8.6c-0.3,0-0.5,0-0.7-0.1s-0.4-0.2-0.6-0.4
				s-0.3-0.4-0.4-0.6c-0.1-0.2-0.1-0.5-0.1-0.7v-17.8c0-12.7,10.9-20.5,21.1-20.5C153.5,149.6,158.9,151.7,162.9,155.5z
				 M224.5,149.8c-5.4,0-10.7,2.1-14.6,6c-3.9,3.8-6.2,9-6.3,14.5c0,12.1,8.6,20.5,20.9,20.5c5.4,0,10.7-2.1,14.6-6
				c3.9-3.8,6.2-9,6.3-14.5C245.4,158.2,236.8,149.8,224.5,149.8z M233.2,170.3c0.1,1.2-0.1,2.4-0.5,3.5s-1,2.1-1.9,3
				c-0.8,0.8-1.8,1.5-2.9,2c-1.1,0.4-2.2,0.7-3.4,0.6c-2.1-0.3-4.1-1.4-5.5-3s-2.2-3.7-2.2-5.9s0.8-4.3,2.2-5.9
				c1.4-1.6,3.4-2.7,5.5-3c1.2,0,2.3,0.2,3.4,0.6c1.1,0.4,2.1,1.1,2.9,1.9c0.8,0.8,1.5,1.8,1.9,2.9
				C233.1,167.9,233.2,169.1,233.2,170.3z M271.9,149.7c2.9,0.1,5.6,0.9,8.1,2.3v-19.7c0-0.5,0.2-0.9,0.5-1.2s0.8-0.5,1.2-0.5h8.8
				c0.5,0,0.9,0.2,1.2,0.5s0.5,0.8,0.5,1.2v38c-0.1,5.5-2.4,10.7-6.3,14.5s-9.1,6-14.6,6c-12.3,0-20.9-8.4-20.9-20.5
				c0-2.8,0.6-5.5,1.7-8.1c1.1-2.5,2.7-4.8,4.7-6.7s4.4-3.4,6.9-4.4C266.4,150.1,269.1,149.6,271.9,149.7z M279.5,173.7
				c0.4-1.1,0.6-2.3,0.5-3.5c0.1-1.2-0.1-2.3-0.5-3.4c-0.4-1.1-1.1-2.1-1.9-2.9c-0.8-0.8-1.8-1.5-2.9-1.9s-2.2-0.6-3.4-0.6
				c-2.1,0.3-4.1,1.4-5.5,3s-2.2,3.7-2.2,5.9s0.8,4.3,2.2,5.9c1.4,1.6,3.4,2.7,5.5,3c1.2,0,2.3-0.2,3.4-0.6c1.1-0.4,2.1-1.1,2.9-2
				S279.1,174.8,279.5,173.7z M318.1,149.8c-5.4,0-10.7,2.1-14.6,6c-3.9,3.8-6.2,9-6.3,14.5c0,12.1,8.6,20.5,20.9,20.5
				c5.4,0,10.7-2.1,14.6-6c3.9-3.8,6.2-9,6.3-14.5C339,158.2,330.4,149.8,318.1,149.8z M326.8,170.3c0.1,1.2-0.1,2.4-0.5,3.5
				s-1,2.1-1.9,3c-0.8,0.8-1.8,1.5-2.9,2c-1.1,0.4-2.2,0.7-3.4,0.6c-1.2,0-2.3-0.2-3.4-0.7s-2.1-1.1-2.9-2c-0.8-0.8-1.4-1.8-1.9-2.9
				c-0.4-1.1-0.6-2.3-0.5-3.4c-0.1-1.2,0.1-2.4,0.5-3.5s1-2.1,1.9-3s1.8-1.5,2.9-2c1.1-0.4,2.2-0.7,3.4-0.6c1.2,0,2.3,0.2,3.4,0.6
				c1.1,0.4,2.1,1.1,2.9,2s1.4,1.9,1.9,3C326.7,167.9,326.9,169.1,326.8,170.3z M66.1,149.8h13.1c0.3,0,0.5,0.1,0.7,0.2
				c0.2,0.1,0.4,0.3,0.5,0.6c0.1,0.2,0.1,0.5,0.1,0.7c0,0.3-0.1,0.5-0.3,0.7l-14.3,14.4c-0.2,0.2-0.4,0.5-0.4,0.9
				c0,0.3,0.1,0.7,0.3,0.9l14.7,20.3c0.2,0.2,0.3,0.5,0.3,0.7c0,0.3,0,0.5-0.1,0.8c-0.1,0.2-0.3,0.4-0.5,0.6
				c-0.2,0.1-0.5,0.2-0.8,0.2H67.9c-0.2,0-0.4-0.1-0.6-0.1c-0.2-0.1-0.4-0.2-0.5-0.4l-9.3-12.9c-0.1-0.2-0.3-0.3-0.4-0.4
				c-0.2-0.1-0.4-0.2-0.6-0.2c-0.2,0-0.4,0-0.6,0.1c-0.2,0.1-0.4,0.2-0.5,0.3l-3.7,3.8c-0.1,0.1-0.2,0.3-0.3,0.4
				c-0.1,0.2-0.1,0.3-0.1,0.5v7.5c0,0.2,0,0.4-0.1,0.5c-0.1,0.2-0.2,0.3-0.3,0.4c-0.1,0.1-0.3,0.2-0.5,0.3s-0.3,0.1-0.5,0.1h-9.4
				c-0.2,0-0.4,0-0.5-0.1c-0.2-0.1-0.3-0.2-0.5-0.3c-0.1-0.1-0.2-0.3-0.3-0.4c-0.1-0.2-0.1-0.3-0.1-0.5v-57.5c0-0.2,0-0.4,0.1-0.5
				c0.1-0.2,0.2-0.3,0.3-0.5c0.1-0.1,0.3-0.2,0.4-0.3c0.2-0.1,0.3-0.1,0.5-0.1h9.5c0.2,0,0.4,0,0.5,0.1c0.2,0.1,0.3,0.2,0.4,0.3
				c0.1,0.1,0.2,0.3,0.3,0.5s0.1,0.4,0.1,0.5v29c0,0.3,0.1,0.5,0.2,0.7c0.1,0.2,0.3,0.4,0.6,0.5c0.2,0.1,0.5,0.1,0.7,0.1
				s0.5-0.1,0.7-0.3L65,150.2C65.4,149.9,65.8,149.8,66.1,149.8z M118.8,240l-7.8-28.1h4.5l5.5,21.8h0.3l5.7-21.8h4.4l5.7,21.8h0.3
				l5.5-21.8h4.5l-7.8,28.1h-4.3l-5.9-21.1H129l-5.9,21.1H118.8z M151,240h-4.5l10.1-28.1h4.9l10.1,28.1h-4.5l-2.6-7.4h-11L151,240z
				 M159.2,217l4.1,12h-8.5l4.2-12H159.2z M175.7,211.9V240h17v-3.7H180v-24.5L175.7,211.9L175.7,211.9z M197.5,240v-28.1h4.2v24.5
				h12.7v3.7L197.5,240L197.5,240z M219.3,211.9V240h17.8v-3.7h-13.5v-8.6H236v-3.6h-12.5v-8.6H237v-3.7h-17.7V211.9z M241.2,215.5
				v-3.7H263v3.7h-8.8V240H250v-24.5H241.2z"/>
		</g>
	</g>
	<g class="st1">
		<defs>
			<rect id="SVGID_00000078025310721160864310000006450723773603755138_" width="378" height="240"/>
		</defs>
		<clipPath id="SVGID_00000030460261605846701140000008807173137321046972_">
			<use xlink:href="#SVGID_00000078025310721160864310000006450723773603755138_"  style="overflow:visible;"/>
		</clipPath>
		
			<rect x="-220" y="-69" style="clip-path:url(#SVGID_00000030460261605846701140000008807173137321046972_);" width="739" height="339"/>
	</g>
</g>
<g id="squeexe">
	<g id="logoSVG">
		<g id="letters">
			<path id="bigX_1_" class="st5" d="M258.9,26.4c-2.6,0-5.1,1.2-6.7,3.2l-49.5,69.5l49.5,67.9c1.7,2,4.1,3.1,6.7,3.1H331
				c0.2,0,0.4,0.1,0.5,0.3c0.2,0.2,0.3,0.4,0.3,0.7v15.5c0,0.3-0.1,0.5-0.3,0.7c-0.1,0.1-0.3,0.3-0.5,0.3h-73.8
				c-7.8,0-15.2-2.2-20.8-8.6l-46.6-63.2L145.1,178c-5.6,6.4-12.4,9.6-20.2,9.6H48.6c-0.2,0-0.4-0.1-0.5-0.3
				c-0.2-0.2-0.3-0.4-0.3-0.7V171c0-0.3,0.1-0.5,0.3-0.7c0.1-0.1,0.3-0.3,0.5-0.3h74.5c2.6,0,5.1-1.1,6.7-3.1l48-67.5l-48.5-68.1
				c-1.9-2.2-3.7-5-6.2-5H48.6c-0.2,0-0.4-0.1-0.5-0.3c-0.1-0.1-0.3-0.3-0.3-0.6V9.9c0-0.2,0.1-0.4,0.3-0.6C48.2,9.1,48.4,9,48.6,9
				h76.2c7.8,0,14,4.3,19.6,10.6l46,62.5L237,18.6c5.6-6.3,12.3-9.5,20.1-9.5H331c0.5,0,0.8,0.4,0.8,0.8v15.7c0,0.2-0.1,0.4-0.3,0.5
				c-0.1,0.1-0.3,0.3-0.5,0.3L258.9,26.4z"/>
		</g>
	</g>
</g>
<g>
	<g class="st6">
		<path class="st7" d="M55.5,209.4c1-1,2.2-1.4,3.5-1.4h7.6c0.1,0,0.1,0,0.1,0c0,0,0,0.1,0,0.1v18.7c0,0,0,0.1,0,0.1
			c0,0-0.1,0-0.1,0h-3.5c0,0-0.1,0-0.1,0c0,0,0-0.1,0-0.1v-15.6h-3.2c-0.4,0-0.8,0.2-1.1,0.5l-15.3,15.2c0,0-0.1,0-0.1,0h-4.9
			c-0.1,0-0.1,0-0.2-0.1s0-0.1,0-0.2L55.5,209.4z"/>
		<path class="st7" d="M99.6,226.8c0,0,0,0.1,0,0.1c0,0-0.1,0-0.1,0H77.9c-1.5,0-2.8-0.5-3.9-1.6c-1.1-1.1-1.6-2.3-1.6-3.9v-13.4
			c0-0.1,0-0.1,0-0.1c0,0,0.1,0,0.1,0h3.5c0.1,0,0.1,0,0.1,0c0,0,0,0.1,0,0.1v14c0,0.4,0.2,0.8,0.5,1.2c0.3,0.3,0.7,0.5,1.2,0.5
			h21.6c0,0,0.1,0,0.1,0c0,0,0,0.1,0,0.1V226.8z"/>
		<path class="st7" d="M132.5,226.8c0,0,0,0.1,0,0.1c0,0-0.1,0-0.1,0h-21.6c-1.5,0-2.8-0.5-3.9-1.6c-1.1-1.1-1.6-2.3-1.6-3.9v-13.4
			c0-0.1,0-0.1,0-0.1c0,0,0.1,0,0.1,0h3.5c0.1,0,0.1,0,0.1,0c0,0,0,0.1,0,0.1v14c0,0.4,0.2,0.8,0.5,1.2c0.3,0.3,0.7,0.5,1.2,0.5
			h21.6c0,0,0.1,0,0.1,0c0,0,0,0.1,0,0.1V226.8z"/>
		<path class="st7" d="M142,215.8h20.5c0.1,0,0.1,0,0.1,0c0,0,0,0.1,0,0.1v2.9c0,0.1,0,0.1,0,0.1c0,0-0.1,0-0.1,0H142v3
			c0,0.4,0.2,0.8,0.5,1.2c0.3,0.3,0.7,0.5,1.2,0.5h21.6c0.1,0,0.1,0,0.1,0c0,0,0,0.1,0,0.1v2.9c0,0.1,0,0.1,0,0.1c0,0-0.1,0-0.1,0
			h-21.6c-1.5,0-2.8-0.5-3.9-1.6c-1.1-1.1-1.6-2.3-1.6-3.9v-8.1c0-1.5,0.5-2.8,1.6-3.9c1.1-1.1,2.3-1.6,3.9-1.6h21.6
			c0.1,0,0.1,0,0.1,0c0,0,0,0.1,0,0.1v2.9c0,0,0,0.1,0,0.1c0,0-0.1,0-0.1,0h-21.6c-0.5,0-0.8,0.2-1.2,0.5c-0.3,0.3-0.5,0.7-0.5,1.2
			V215.8z"/>
		<path class="st7" d="M171.2,208.1c0-0.1,0-0.1,0-0.1c0,0,0.1,0,0.1,0h26.9c0,0,0.1,0,0.1,0c0,0,0,0.1,0,0.1v2.9c0,0,0,0.1,0,0.1
			c0,0-0.1,0-0.1,0h-11.5v15.6c0,0.1,0,0.1,0,0.1c0,0-0.1,0-0.1,0H183c-0.1,0-0.1,0-0.1,0c0,0,0-0.1,0-0.1v-15.6h-11.5
			c0,0-0.1,0-0.1,0c0,0,0-0.1,0-0.1V208.1z"/>
		<path class="st7" d="M228.5,215.8h24.3c0,0,0.1,0,0.1,0c0,0,0,0.1,0,0.1v2.9c0,0.1,0,0.1,0,0.1c0,0-0.1,0-0.1,0h-3.7v3
			c0,1.4-0.5,2.5-1.4,3.5c-1,1-2.1,1.4-3.5,1.4H228c-1.4,0-2.5-0.5-3.5-1.4c-1-1-1.4-2.1-1.4-3.5v-1.4c0-1.3,0.4-2.3,1.3-3.3
			c-0.8-0.9-1.3-2-1.3-3.3v-1.4c0-1.3,0.5-2.5,1.4-3.5c1-1,2.1-1.4,3.5-1.4h17.2c0,0,0.1,0,0.1,0c0,0,0,0.1,0,0.1v2.9
			c0,0.1,0,0.1,0,0.1c0,0-0.1,0-0.1,0h-16.7c-0.5,0-0.8,0.2-1.2,0.5s-0.5,0.7-0.5,1.1v1.4c0,0.4,0.2,0.8,0.5,1.2
			C227.7,215.6,228.1,215.8,228.5,215.8z M245.4,222v-3h-16.8c-0.5,0-0.8,0.2-1.2,0.5s-0.5,0.7-0.5,1.2v1.4c0,0.4,0.2,0.8,0.5,1.2
			c0.3,0.3,0.7,0.5,1.2,0.5h15.2c0.4,0,0.8-0.2,1.1-0.5C245.2,222.9,245.4,222.5,245.4,222z"/>
		<path class="st7" d="M299.5,207.9c1.5,0,2.8,0.5,3.9,1.6c1.1,1.1,1.6,2.3,1.6,3.9v8.1c0,1.5-0.5,2.8-1.6,3.9
			c-1.1,1.1-2.3,1.6-3.9,1.6h-21.6c0,0-0.1,0-0.1,0c0,0,0-0.1,0-0.1v-18.7c0-0.1,0-0.1,0-0.1c0,0,0.1,0,0.1,0H299.5z M301.1,212.8
			c0-0.4-0.2-0.8-0.5-1.2c-0.3-0.3-0.7-0.5-1.2-0.5h-17.9v12.5h17.9c0.5,0,0.8-0.2,1.2-0.5c0.3-0.3,0.5-0.7,0.5-1.2V212.8z"/>
		<path class="st7" d="M314.5,215.8H335c0.1,0,0.1,0,0.1,0c0,0,0,0.1,0,0.1v2.9c0,0.1,0,0.1,0,0.1c0,0-0.1,0-0.1,0h-20.5v3
			c0,0.4,0.2,0.8,0.5,1.2c0.3,0.3,0.7,0.5,1.2,0.5h21.6c0.1,0,0.1,0,0.1,0c0,0,0,0.1,0,0.1v2.9c0,0.1,0,0.1,0,0.1c0,0-0.1,0-0.1,0
			h-21.6c-1.5,0-2.8-0.5-3.9-1.6c-1.1-1.1-1.6-2.3-1.6-3.9v-8.1c0-1.5,0.5-2.8,1.6-3.9c1.1-1.1,2.3-1.6,3.9-1.6h21.6
			c0.1,0,0.1,0,0.1,0c0,0,0,0.1,0,0.1v2.9c0,0,0,0.1,0,0.1c0,0-0.1,0-0.1,0h-21.6c-0.5,0-0.8,0.2-1.2,0.5c-0.3,0.3-0.5,0.7-0.5,1.2
			V215.8z"/>
		<path class="st7" d="M365.3,211.2c-0.5,0-0.9,0.2-1.3,0.6l-4.6,5.7l4.6,5.7c0.4,0.4,0.8,0.6,1.3,0.6h5.3c0,0,0.1,0,0.1,0
			c0,0,0,0.1,0,0.1v2.9c0,0.1,0,0.1,0,0.1c0,0-0.1,0-0.1,0H365c-1.5,0-2.7-0.6-3.8-1.8l-4-4.9l-4,4.9c-1.1,1.2-2.3,1.8-3.8,1.8h-5.6
			c0,0-0.1,0-0.1,0c0,0,0-0.1,0-0.1v-2.9c0,0,0-0.1,0-0.1c0,0,0.1,0,0.1,0h5.3c0.5,0,0.9-0.2,1.3-0.6l4.6-5.7l-4.6-5.7
			c-0.4-0.4-0.8-0.6-1.3-0.6h-5.3c0,0-0.1,0-0.1,0c0,0,0-0.1,0-0.1v-3c0,0,0-0.1,0-0.1c0,0,0.1,0,0.1,0h5.6c1.5,0,2.7,0.6,3.8,1.8
			l4,4.9l4-4.9c1.1-1.2,2.3-1.8,3.8-1.8h5.6c0,0,0.1,0,0.1,0c0,0,0,0.1,0,0.1v3c0,0,0,0.1,0,0.1c0,0-0.1,0-0.1,0H365.3z"/>
	</g>
	<polygon class="st8" points="32.7,214.6 72.1,214.6 72.1,214.6 	"/>
	<g class="st6">
		<path class="st7" d="M18.8,224.3v-14.4c0,0,0-0.1,0.1-0.1c0,0,0.1,0,0.2,0h4c0.1,0,0.1,0,0.2,0c0,0,0.1,0.1,0.1,0.1v14.4h4.1
			c0.6,0,1.1-0.1,1.6-0.3c0.4-0.2,0.7-0.5,0.7-0.8V208c0,0,0-0.1,0.1-0.1c0,0,0.1,0,0.1,0h4c0.1,0,0.1,0,0.2,0s0.1,0.1,0.1,0.1v15.1
			c0,1.1-0.7,2-2.2,2.7c-1.4,0.7-3.2,1.1-5.2,1.1h-11c-2,0-3.8-0.4-5.2-1.1c-1.4-0.7-2.2-1.6-2.2-2.7V208c0,0,0-0.1,0.1-0.1
			s0.1,0,0.2,0h4c0.1,0,0.1,0,0.1,0c0,0,0.1,0.1,0.1,0.1v15.1c0,0.3,0.2,0.6,0.7,0.8c0.4,0.2,1,0.3,1.6,0.3H18.8z"/>
	</g>
</g>
</svg>
