<?xml version="1.0" encoding="utf-8"?>
<!-- Generator: Adobe Illustrator 27.0.1, SVG Export Plug-In . SVG Version: 6.00 Build 0)  -->
<svg version="1.1" id="Layer_1" xmlns="http://www.w3.org/2000/svg" xmlns:xlink="http://www.w3.org/1999/xlink" x="0px" y="0px"
	 viewBox="0 0 378 240" style="enable-background:new 0 0 378 240;" xml:space="preserve">
<style type="text/css">
	.st0{display:none;fill:#020000;stroke:#000000;stroke-miterlimit:10;}
	.st1{display:none;}
	.st2{fill:#F64F00;}
	.st3{enable-background:new    ;}
	.st4{fill:#FFFFFF;}
	.st5{fill:none;}
</style>
<rect x="-19.6" y="-3.9" class="st0" width="401.9" height="245.2"/>
<g id="squeexe">
	<g id="logoSVG">
		<g id="letters">
			<rect x="-1" y="0.2" class="st1" width="379.5" height="239.9"/>
			<path id="bigX_1_" class="st2" d="M258.7,23.4c-2.6,0-5.1,1.2-6.7,3.2l-49.5,69.5l49.5,67.8c1.7,2,4.1,3.1,6.7,3.1h72.1
				c0.2,0,0.4,0.1,0.5,0.3c0.2,0.2,0.3,0.4,0.3,0.7v15.5c0,0.3-0.1,0.5-0.3,0.7c-0.1,0.1-0.3,0.3-0.5,0.3H257
				c-7.8,0-15.2-2.2-20.8-8.6l-46.6-63.2l-44.7,62.1c-5.6,6.4-12.4,9.6-20.2,9.6H48.6c-0.2,0-0.4-0.1-0.5-0.3
				c-0.2-0.2-0.3-0.4-0.3-0.7V168c0-0.3,0.1-0.5,0.3-0.7c0.1-0.1,0.3-0.3,0.5-0.3h74.5c2.6,0,5.1-1.1,6.7-3.1l48-67.4l-48.5-68.1
				c-1.9-2.2-3.7-5-6.2-5H48.5c-0.2,0-0.4-0.1-0.5-0.3c-0.1-0.1-0.3-0.3-0.3-0.6V6.9c0-0.2,0.1-0.4,0.3-0.6C48.1,6.2,48.3,6,48.5,6
				h76.2c7.8,0,13.9,4.3,19.6,10.6l46,62.5l46.6-63.5c5.6-6.3,12.3-9.5,20.1-9.5h73.8c0.5,0,0.8,0.4,0.8,0.8v15.6
				c0,0.2-0.1,0.4-0.3,0.5c-0.1,0.1-0.3,0.3-0.5,0.3L258.7,23.4z"/>
		</g>
	</g>
</g>
<g>
	<g class="st3">
		<path class="st4" d="M55.4,206.3c1-1,2.2-1.4,3.5-1.4h7.6c0.1,0,0.1,0,0.1,0c0,0,0,0.1,0,0.1v18.7c0,0,0,0.1,0,0.1
			c0,0-0.1,0-0.1,0H63c0,0-0.1,0-0.1,0c0,0,0-0.1,0-0.1v-15.6h-3.2c-0.4,0-0.8,0.2-1.1,0.5l-15.3,15.2c0,0-0.1,0-0.1,0h-4.9
			c-0.1,0-0.1,0-0.2-0.1s0-0.1,0-0.2L55.4,206.3z"/>
		<path class="st4" d="M99.5,223.8c0,0,0,0.1,0,0.1c0,0-0.1,0-0.1,0H77.8c-1.5,0-2.8-0.5-3.9-1.6c-1.1-1.1-1.6-2.3-1.6-3.9v-13.4
			c0-0.1,0-0.1,0-0.1c0,0,0.1,0,0.1,0H76c0.1,0,0.1,0,0.1,0c0,0,0,0.1,0,0.1v14c0,0.4,0.2,0.8,0.5,1.2c0.3,0.3,0.7,0.5,1.2,0.5h21.6
			c0,0,0.1,0,0.1,0c0,0,0,0.1,0,0.1V223.8z"/>
		<path class="st4" d="M132.4,223.8c0,0,0,0.1,0,0.1c0,0-0.1,0-0.1,0h-21.6c-1.5,0-2.8-0.5-3.9-1.6c-1.1-1.1-1.6-2.3-1.6-3.9v-13.4
			c0-0.1,0-0.1,0-0.1c0,0,0.1,0,0.1,0h3.5c0.1,0,0.1,0,0.1,0c0,0,0,0.1,0,0.1v14c0,0.4,0.2,0.8,0.5,1.2c0.3,0.3,0.7,0.5,1.2,0.5
			h21.6c0,0,0.1,0,0.1,0c0,0,0,0.1,0,0.1V223.8z"/>
		<path class="st4" d="M141.9,212.8h20.5c0.1,0,0.1,0,0.1,0c0,0,0,0.1,0,0.1v2.9c0,0.1,0,0.1,0,0.1c0,0-0.1,0-0.1,0h-20.5v3
			c0,0.4,0.2,0.8,0.5,1.2c0.3,0.3,0.7,0.5,1.2,0.5h21.6c0.1,0,0.1,0,0.1,0c0,0,0,0.1,0,0.1v2.9c0,0.1,0,0.1,0,0.1c0,0-0.1,0-0.1,0
			h-21.6c-1.5,0-2.8-0.5-3.9-1.6c-1.1-1.1-1.6-2.3-1.6-3.9v-8.1c0-1.5,0.5-2.8,1.6-3.9c1.1-1.1,2.3-1.6,3.9-1.6h21.6
			c0.1,0,0.1,0,0.1,0c0,0,0,0.1,0,0.1v2.9c0,0,0,0.1,0,0.1c0,0-0.1,0-0.1,0h-21.6c-0.5,0-0.8,0.2-1.2,0.5s-0.5,0.7-0.5,1.2V212.8z"
			/>
		<path class="st4" d="M171,205.1c0-0.1,0-0.1,0-0.1c0,0,0.1,0,0.1,0H198c0,0,0.1,0,0.1,0c0,0,0,0.1,0,0.1v2.9c0,0,0,0.1,0,0.1
			c0,0-0.1,0-0.1,0h-11.5v15.6c0,0.1,0,0.1,0,0.1c0,0-0.1,0-0.1,0h-3.5c-0.1,0-0.1,0-0.1,0c0,0,0-0.1,0-0.1v-15.6h-11.5
			c0,0-0.1,0-0.1,0c0,0,0-0.1,0-0.1V205.1z"/>
		<path class="st4" d="M228.4,212.8h24.3c0,0,0.1,0,0.1,0c0,0,0,0.1,0,0.1v2.9c0,0.1,0,0.1,0,0.1c0,0-0.1,0-0.1,0H249v3
			c0,1.4-0.5,2.5-1.4,3.5c-1,1-2.1,1.4-3.5,1.4h-16.3c-1.4,0-2.5-0.5-3.5-1.4c-1-1-1.4-2.1-1.4-3.5v-1.4c0-1.3,0.4-2.3,1.3-3.3
			c-0.8-0.9-1.3-2-1.3-3.3v-1.4c0-1.3,0.5-2.5,1.4-3.5s2.1-1.4,3.5-1.4h17.2c0,0,0.1,0,0.1,0c0,0,0,0.1,0,0.1v2.9c0,0.1,0,0.1,0,0.1
			c0,0-0.1,0-0.1,0h-16.7c-0.5,0-0.8,0.2-1.2,0.5s-0.5,0.7-0.5,1.1v1.4c0,0.4,0.2,0.8,0.5,1.2S227.9,212.8,228.4,212.8z M245.2,219
			v-3h-16.8c-0.5,0-0.8,0.2-1.2,0.5c-0.3,0.3-0.5,0.7-0.5,1.2v1.4c0,0.4,0.2,0.8,0.5,1.2c0.3,0.3,0.7,0.5,1.2,0.5h15.2
			c0.4,0,0.8-0.2,1.1-0.5C245.1,219.8,245.2,219.5,245.2,219z"/>
		<path class="st4" d="M299.3,204.9c1.5,0,2.8,0.5,3.9,1.6c1.1,1.1,1.6,2.3,1.6,3.9v8.1c0,1.5-0.5,2.8-1.6,3.9
			c-1.1,1.1-2.3,1.6-3.9,1.6h-21.6c0,0-0.1,0-0.1,0c0,0,0-0.1,0-0.1v-18.7c0-0.1,0-0.1,0-0.1c0,0,0.1,0,0.1,0H299.3z M300.9,209.8
			c0-0.4-0.2-0.8-0.5-1.2s-0.7-0.5-1.2-0.5h-17.9v12.5h17.9c0.5,0,0.8-0.2,1.2-0.5c0.3-0.3,0.5-0.7,0.5-1.2V209.8z"/>
		<path class="st4" d="M314.3,212.8h20.5c0,0,0.1,0,0.1,0c0,0,0,0.1,0,0.1v2.9c0,0.1,0,0.1,0,0.1c0,0-0.1,0-0.1,0h-20.5v3
			c0,0.4,0.2,0.8,0.5,1.2c0.3,0.3,0.7,0.5,1.2,0.5h21.6c0.1,0,0.1,0,0.1,0c0,0,0,0.1,0,0.1v2.9c0,0.1,0,0.1,0,0.1c0,0-0.1,0-0.1,0
			h-21.6c-1.5,0-2.8-0.5-3.9-1.6s-1.6-2.3-1.6-3.9v-8.1c0-1.5,0.5-2.8,1.6-3.9s2.3-1.6,3.9-1.6h21.6c0.1,0,0.1,0,0.1,0
			c0,0,0,0.1,0,0.1v2.9c0,0,0,0.1,0,0.1c0,0-0.1,0-0.1,0h-21.6c-0.5,0-0.8,0.2-1.2,0.5c-0.3,0.3-0.5,0.7-0.5,1.2V212.8z"/>
		<path class="st4" d="M365.1,208.1c-0.5,0-0.9,0.2-1.3,0.6l-4.6,5.7l4.6,5.7c0.4,0.4,0.8,0.6,1.3,0.6h5.3c0,0,0.1,0,0.1,0
			c0,0,0,0.1,0,0.1v2.9c0,0.1,0,0.1,0,0.1c0,0-0.1,0-0.1,0h-5.6c-1.5,0-2.7-0.6-3.8-1.8l-4-4.9l-4,4.9c-1.1,1.2-2.3,1.8-3.8,1.8
			h-5.6c0,0-0.1,0-0.1,0c0,0,0-0.1,0-0.1v-2.9c0-0.1,0-0.1,0-0.1s0.1,0,0.1,0h5.3c0.5,0,0.9-0.2,1.3-0.6l4.6-5.7l-4.6-5.7
			c-0.4-0.4-0.8-0.6-1.3-0.6h-5.3c0,0-0.1,0-0.1,0c0,0,0-0.1,0-0.1V205c0,0,0-0.1,0-0.1c0,0,0.1,0,0.1,0h5.6c1.5,0,2.7,0.6,3.8,1.8
			l4,4.9l4-4.9c1.1-1.2,2.3-1.8,3.8-1.8h5.6c0,0,0.1,0,0.1,0c0,0,0,0.1,0,0.1v2.9c0,0,0,0.1,0,0.1c0,0-0.1,0-0.1,0H365.1z"/>
	</g>
	<polygon class="st5" points="32.7,211.6 72,211.6 72,211.6 	"/>
	<g class="st3">
		<path class="st4" d="M18.7,221.2v-14.4c0,0,0-0.1,0.1-0.1c0,0,0.1,0,0.2,0h4c0.1,0,0.1,0,0.2,0c0,0,0.1,0.1,0.1,0.1v14.4h4.1
			c0.6,0,1.1-0.1,1.6-0.3c0.4-0.2,0.7-0.5,0.7-0.8v-15.1c0,0,0-0.1,0.1-0.1c0,0,0.1,0,0.1,0h4c0.1,0,0.1,0,0.2,0
			c0,0,0.1,0.1,0.1,0.1v15.1c0,1.1-0.7,2-2.2,2.7c-1.4,0.7-3.2,1.1-5.2,1.1h-11c-2,0-3.8-0.4-5.2-1.1C8.7,222,8,221.1,8,220.1v-15.1
			c0,0,0-0.1,0.1-0.1c0,0,0.1,0,0.2,0h4c0.1,0,0.1,0,0.1,0c0,0,0.1,0.1,0.1,0.1v15.1c0,0.3,0.2,0.6,0.7,0.8c0.4,0.2,1,0.3,1.6,0.3
			H18.7z"/>
	</g>
</g>
<rect x="413.3" y="122.4" width="1.1" height="0.6"/>
</svg>
