<?xml version="1.0" encoding="UTF-8" standalone="no"?>
<!-- Generator: Adobe Illustrator 27.0.1, SVG Export Plug-In . SVG Version: 6.00 Build 0)  -->

<svg
   version="1.1"
   id="Layer_1"
   x="0px"
   y="0px"
   viewBox="0 0 142884 57600"
   xml:space="preserve"
   width="142884"
   height="57600"
   xmlns="http://www.w3.org/2000/svg"
   xmlns:svg="http://www.w3.org/2000/svg"><defs
   id="defs358" />
<style
   type="text/css"
   id="style315">
	.st0{display:none;fill:#020000;stroke:#000000;stroke-miterlimit:10;}
	.st1{display:none;}
	.st2{fill:#F64F00;}
	.st3{enable-background:new    ;}
	.st4{fill:#FFFFFF;}
	.st5{fill:none;}
</style>
<rect
   x="-19.6"
   y="-3.9000001"
   class="st0"
   width="401.89999"
   height="245.2"
   id="rect317" />
<g
   id="squeexe">
	<g
   id="logoSVG">
		<g
   id="letters">
			<rect
   x="-1"
   y="0.2"
   class="st1"
   width="379.5"
   height="239.89999"
   id="rect319" />
			<path
   id="bigX_1_"
   class="st2"
   d="m 258.7,23.4 c -2.6,0 -5.1,1.2 -6.7,3.2 l -49.5,69.5 49.5,67.8 c 1.7,2 4.1,3.1 6.7,3.1 h 72.1 c 0.2,0 0.4,0.1 0.5,0.3 0.2,0.2 0.3,0.4 0.3,0.7 v 15.5 c 0,0.3 -0.1,0.5 -0.3,0.7 -0.1,0.1 -0.3,0.3 -0.5,0.3 H 257 c -7.8,0 -15.2,-2.2 -20.8,-8.6 l -46.6,-63.2 -44.7,62.1 c -5.6,6.4 -12.4,9.6 -20.2,9.6 H 48.6 c -0.2,0 -0.4,-0.1 -0.5,-0.3 -0.2,-0.2 -0.3,-0.4 -0.3,-0.7 V 168 c 0,-0.3 0.1,-0.5 0.3,-0.7 0.1,-0.1 0.3,-0.3 0.5,-0.3 h 74.5 c 2.6,0 5.1,-1.1 6.7,-3.1 l 48,-67.4 -48.5,-68.1 c -1.9,-2.2 -3.7,-5 -6.2,-5 H 48.5 C 48.3,23.4 48.1,23.3 48,23.1 47.9,23 47.7,22.8 47.7,22.5 V 6.9 C 47.7,6.7 47.8,6.5 48,6.3 48.1,6.2 48.3,6 48.5,6 h 76.2 c 7.8,0 13.9,4.3 19.6,10.6 l 46,62.5 46.6,-63.5 C 242.5,9.3 249.2,6.1 257,6.1 h 73.8 c 0.5,0 0.8,0.4 0.8,0.8 v 15.6 c 0,0.2 -0.1,0.4 -0.3,0.5 -0.1,0.1 -0.3,0.3 -0.5,0.3 z" />
		</g>
	</g>
</g>
<g
   id="g351">
	<g
   class="st3"
   id="g343">
		<path
   class="st4"
   d="m 55.4,206.3 c 1,-1 2.2,-1.4 3.5,-1.4 h 7.6 c 0.1,0 0.1,0 0.1,0 0,0 0,0.1 0,0.1 v 18.7 c 0,0 0,0.1 0,0.1 0,0 -0.1,0 -0.1,0 H 63 c 0,0 -0.1,0 -0.1,0 0,0 0,-0.1 0,-0.1 v -15.6 h -3.2 c -0.4,0 -0.8,0.2 -1.1,0.5 l -15.3,15.2 c 0,0 -0.1,0 -0.1,0 h -4.9 c -0.1,0 -0.1,0 -0.2,-0.1 -0.1,-0.1 0,-0.1 0,-0.2 z"
   id="path325" />
		<path
   class="st4"
   d="m 99.5,223.8 c 0,0 0,0.1 0,0.1 0,0 -0.1,0 -0.1,0 H 77.8 c -1.5,0 -2.8,-0.5 -3.9,-1.6 -1.1,-1.1 -1.6,-2.3 -1.6,-3.9 V 205 c 0,-0.1 0,-0.1 0,-0.1 0,0 0.1,0 0.1,0 H 76 c 0.1,0 0.1,0 0.1,0 0,0 0,0.1 0,0.1 v 14 c 0,0.4 0.2,0.8 0.5,1.2 0.3,0.3 0.7,0.5 1.2,0.5 h 21.6 c 0,0 0.1,0 0.1,0 0,0 0,0.1 0,0.1 z"
   id="path327" />
		<path
   class="st4"
   d="m 132.4,223.8 c 0,0 0,0.1 0,0.1 0,0 -0.1,0 -0.1,0 h -21.6 c -1.5,0 -2.8,-0.5 -3.9,-1.6 -1.1,-1.1 -1.6,-2.3 -1.6,-3.9 V 205 c 0,-0.1 0,-0.1 0,-0.1 0,0 0.1,0 0.1,0 h 3.5 c 0.1,0 0.1,0 0.1,0 0,0 0,0.1 0,0.1 v 14 c 0,0.4 0.2,0.8 0.5,1.2 0.3,0.3 0.7,0.5 1.2,0.5 h 21.6 c 0,0 0.1,0 0.1,0 0,0 0,0.1 0,0.1 v 3 z"
   id="path329" />
		<path
   class="st4"
   d="m 141.9,212.8 h 20.5 c 0.1,0 0.1,0 0.1,0 0,0 0,0.1 0,0.1 v 2.9 c 0,0.1 0,0.1 0,0.1 0,0 -0.1,0 -0.1,0 h -20.5 v 3 c 0,0.4 0.2,0.8 0.5,1.2 0.3,0.3 0.7,0.5 1.2,0.5 h 21.6 c 0.1,0 0.1,0 0.1,0 0,0 0,0.1 0,0.1 v 2.9 c 0,0.1 0,0.1 0,0.1 0,0 -0.1,0 -0.1,0 h -21.6 c -1.5,0 -2.8,-0.5 -3.9,-1.6 -1.1,-1.1 -1.6,-2.3 -1.6,-3.9 v -8.1 c 0,-1.5 0.5,-2.8 1.6,-3.9 1.1,-1.1 2.3,-1.6 3.9,-1.6 h 21.6 c 0.1,0 0.1,0 0.1,0 0,0 0,0.1 0,0.1 v 2.9 c 0,0 0,0.1 0,0.1 0,0 -0.1,0 -0.1,0 h -21.6 c -0.5,0 -0.8,0.2 -1.2,0.5 -0.4,0.3 -0.5,0.7 -0.5,1.2 z"
   id="path331" />
		<path
   class="st4"
   d="m 171,205.1 c 0,-0.1 0,-0.1 0,-0.1 0,0 0.1,0 0.1,0 H 198 c 0,0 0.1,0 0.1,0 0,0 0,0.1 0,0.1 v 2.9 c 0,0 0,0.1 0,0.1 0,0 -0.1,0 -0.1,0 h -11.5 v 15.6 c 0,0.1 0,0.1 0,0.1 0,0 -0.1,0 -0.1,0 h -3.5 c -0.1,0 -0.1,0 -0.1,0 0,0 0,-0.1 0,-0.1 v -15.6 h -11.5 c 0,0 -0.1,0 -0.1,0 0,0 0,-0.1 0,-0.1 v -2.9 z"
   id="path333" />
		<path
   class="st4"
   d="m 228.4,212.8 h 24.3 c 0,0 0.1,0 0.1,0 0,0 0,0.1 0,0.1 v 2.9 c 0,0.1 0,0.1 0,0.1 0,0 -0.1,0 -0.1,0 H 249 v 3 c 0,1.4 -0.5,2.5 -1.4,3.5 -1,1 -2.1,1.4 -3.5,1.4 h -16.3 c -1.4,0 -2.5,-0.5 -3.5,-1.4 -1,-1 -1.4,-2.1 -1.4,-3.5 v -1.4 c 0,-1.3 0.4,-2.3 1.3,-3.3 -0.8,-0.9 -1.3,-2 -1.3,-3.3 v -1.4 c 0,-1.3 0.5,-2.5 1.4,-3.5 0.9,-1 2.1,-1.4 3.5,-1.4 H 245 c 0,0 0.1,0 0.1,0 0,0 0,0.1 0,0.1 v 2.9 c 0,0.1 0,0.1 0,0.1 0,0 -0.1,0 -0.1,0 h -16.7 c -0.5,0 -0.8,0.2 -1.2,0.5 -0.4,0.3 -0.5,0.7 -0.5,1.1 v 1.4 c 0,0.4 0.2,0.8 0.5,1.2 0.3,0.4 0.8,0.9 1.3,0.9 z m 16.8,6.2 v -3 h -16.8 c -0.5,0 -0.8,0.2 -1.2,0.5 -0.3,0.3 -0.5,0.7 -0.5,1.2 v 1.4 c 0,0.4 0.2,0.8 0.5,1.2 0.3,0.3 0.7,0.5 1.2,0.5 h 15.2 c 0.4,0 0.8,-0.2 1.1,-0.5 0.4,-0.5 0.5,-0.8 0.5,-1.3 z"
   id="path335" />
		<path
   class="st4"
   d="m 299.3,204.9 c 1.5,0 2.8,0.5 3.9,1.6 1.1,1.1 1.6,2.3 1.6,3.9 v 8.1 c 0,1.5 -0.5,2.8 -1.6,3.9 -1.1,1.1 -2.3,1.6 -3.9,1.6 h -21.6 c 0,0 -0.1,0 -0.1,0 0,0 0,-0.1 0,-0.1 v -18.7 c 0,-0.1 0,-0.1 0,-0.1 0,0 0.1,0 0.1,0 h 21.6 z m 1.6,4.9 c 0,-0.4 -0.2,-0.8 -0.5,-1.2 -0.3,-0.4 -0.7,-0.5 -1.2,-0.5 h -17.9 v 12.5 h 17.9 c 0.5,0 0.8,-0.2 1.2,-0.5 0.3,-0.3 0.5,-0.7 0.5,-1.2 z"
   id="path337" />
		<path
   class="st4"
   d="m 314.3,212.8 h 20.5 c 0,0 0.1,0 0.1,0 0,0 0,0.1 0,0.1 v 2.9 c 0,0.1 0,0.1 0,0.1 0,0 -0.1,0 -0.1,0 h -20.5 v 3 c 0,0.4 0.2,0.8 0.5,1.2 0.3,0.3 0.7,0.5 1.2,0.5 h 21.6 c 0.1,0 0.1,0 0.1,0 0,0 0,0.1 0,0.1 v 2.9 c 0,0.1 0,0.1 0,0.1 0,0 -0.1,0 -0.1,0 H 316 c -1.5,0 -2.8,-0.5 -3.9,-1.6 -1.1,-1.1 -1.6,-2.3 -1.6,-3.9 v -8.1 c 0,-1.5 0.5,-2.8 1.6,-3.9 1.1,-1.1 2.3,-1.6 3.9,-1.6 h 21.6 c 0.1,0 0.1,0 0.1,0 0,0 0,0.1 0,0.1 v 2.9 c 0,0 0,0.1 0,0.1 0,0 -0.1,0 -0.1,0 H 316 c -0.5,0 -0.8,0.2 -1.2,0.5 -0.3,0.3 -0.5,0.7 -0.5,1.2 z"
   id="path339" />
		<path
   class="st4"
   d="m 365.1,208.1 c -0.5,0 -0.9,0.2 -1.3,0.6 l -4.6,5.7 4.6,5.7 c 0.4,0.4 0.8,0.6 1.3,0.6 h 5.3 c 0,0 0.1,0 0.1,0 0,0 0,0.1 0,0.1 v 2.9 c 0,0.1 0,0.1 0,0.1 0,0 -0.1,0 -0.1,0 h -5.6 c -1.5,0 -2.7,-0.6 -3.8,-1.8 l -4,-4.9 -4,4.9 c -1.1,1.2 -2.3,1.8 -3.8,1.8 h -5.6 c 0,0 -0.1,0 -0.1,0 0,0 0,-0.1 0,-0.1 v -2.9 c 0,-0.1 0,-0.1 0,-0.1 0,0 0.1,0 0.1,0 h 5.3 c 0.5,0 0.9,-0.2 1.3,-0.6 l 4.6,-5.7 -4.6,-5.7 c -0.4,-0.4 -0.8,-0.6 -1.3,-0.6 h -5.3 c 0,0 -0.1,0 -0.1,0 0,0 0,-0.1 0,-0.1 v -3 c 0,0 0,-0.1 0,-0.1 0,0 0.1,0 0.1,0 h 5.6 c 1.5,0 2.7,0.6 3.8,1.8 l 4,4.9 4,-4.9 c 1.1,-1.2 2.3,-1.8 3.8,-1.8 h 5.6 c 0,0 0.1,0 0.1,0 0,0 0,0.1 0,0.1 v 2.9 c 0,0 0,0.1 0,0.1 0,0 -0.1,0 -0.1,0 h -5.3 z"
   id="path341" />
	</g>
	<polygon
   class="st5"
   points="72,211.6 32.7,211.6 "
   id="polygon345" />
	<g
   class="st3"
   id="g349">
		<path
   class="st4"
   d="m 18.7,221.2 v -14.4 c 0,0 0,-0.1 0.1,-0.1 0,0 0.1,0 0.2,0 h 4 c 0.1,0 0.1,0 0.2,0 0,0 0.1,0.1 0.1,0.1 v 14.4 h 4.1 c 0.6,0 1.1,-0.1 1.6,-0.3 0.4,-0.2 0.7,-0.5 0.7,-0.8 V 205 c 0,0 0,-0.1 0.1,-0.1 0,0 0.1,0 0.1,0 h 4 c 0.1,0 0.1,0 0.2,0 0,0 0.1,0.1 0.1,0.1 v 15.1 c 0,1.1 -0.7,2 -2.2,2.7 -1.4,0.7 -3.2,1.1 -5.2,1.1 h -11 c -2,0 -3.8,-0.4 -5.2,-1.1 C 8.7,222 8,221.1 8,220.1 V 205 c 0,0 0,-0.1 0.1,-0.1 0,0 0.1,0 0.2,0 h 4 c 0.1,0 0.1,0 0.1,0 0,0 0.1,0.1 0.1,0.1 v 15.1 c 0,0.3 0.2,0.6 0.7,0.8 0.4,0.2 1,0.3 1.6,0.3 z"
   id="path347" />
	</g>
</g>
<rect
   x="413.29999"
   y="122.4"
   width="1.1"
   height="0.60000002"
   id="rect353" />
</svg>
