<?xml version="1.0" encoding="UTF-8" standalone="no"?>
<!-- Generator: Adobe Illustrator 27.0.1, SVG Export Plug-In . SVG Version: 6.00 Build 0)  -->

<svg
   version="1.1"
   id="Layer_1"
   x="0px"
   y="0px"
   viewBox="0 0 142884 57600"
   xml:space="preserve"
   width="142884"
   height="57600"
   xmlns:xlink="http://www.w3.org/1999/xlink"
   xmlns="http://www.w3.org/2000/svg"
   xmlns:svg="http://www.w3.org/2000/svg"><defs
   id="defs79" />
<style
   type="text/css"
   id="style18">
	.st0{display:none;}
	.st1{display:inline;}
	.st2{clip-path:url(#SVGID_00000008865568452461193500000011637868874510615741_);}
	.st3{fill-rule:evenodd;clip-rule:evenodd;fill:#FFFFFF;}
	.st4{clip-path:url(#SVGID_00000121259629647978882620000016866492410903164808_);}
	.st5{fill:#F64F00;}
	.st6{enable-background:new    ;}
	.st7{fill:#FFFFFF;}
	.st8{fill:none;}
</style>
<g
   class="st0"
   id="g42">
	<g
   class="st1"
   id="g30">
		<defs
   id="defs21"><rect
     id="SVGID_1_"
     width="378"
     height="240"
     x="0"
     y="0" /></defs>
		<clipPath
   id="SVGID_00000050649489220111894580000009697970397252882098_">
			<use
   xlink:href="#SVGID_1_"
   style="overflow:visible"
   id="use23" />
		</clipPath>
		<g
   clip-path="url(#SVGID_00000050649489220111894580000009697970397252882098_)"
   id="g28">
			<path
   class="st3"
   d="m 125.1,61.1 c 0,16.2 6.4,31.8 17.8,43.3 11.4,11.5 26.9,18 43.1,18 16.2,0 31.7,-6.4 43.1,-17.8 11.4,-11.5 17.9,-27 17.9,-43.2 v -0.5 c 0,-4.7 -0.6,-9.4 -1.6,-14 -0.4,-1.6 -1.5,-3 -3,-3.9 -1.5,-0.9 -3.2,-1.1 -4.8,-0.8 -1.7,0.4 -3.1,1.4 -4,2.8 -0.9,1.4 -1.2,3.2 -0.9,4.8 2.5,10.2 1.5,20.9 -2.6,30.5 -4.2,9.6 -11.3,17.6 -20.5,22.8 -9.1,5.1 -19.6,7.2 -30,5.7 -10.4,-1.4 -20,-6.2 -27.4,-13.6 -7.4,-7.4 -12.2,-17 -13.6,-27.4 -1.4,-10.4 0.5,-21 5.6,-30.1 5.1,-9.2 13,-16.4 22.6,-20.6 9.6,-4.2 20.2,-5.2 30.4,-2.7 1.7,0.4 3.5,0.1 4.9,-0.8 1.5,-0.9 2.5,-2.4 2.9,-4.1 0.2,-0.8 0.2,-1.7 0.1,-2.5 -0.1,-0.8 -0.4,-1.7 -0.9,-2.4 -0.4,-0.7 -1,-1.4 -1.7,-1.9 -0.7,-0.5 -1.5,-0.9 -2.3,-1 -7.8,-1.9 -15.8,-2.2 -23.7,-0.9 -8,1.2 -15.6,4 -22.4,8.2 -6.8,4.2 -12.7,9.7 -17.4,16.2 -4.7,6.5 -8.1,13.9 -9.9,21.7 -1.2,4.7 -1.7,9.4 -1.7,14.2 z m 91.7,-44.8 v 0 c 0,0 -0.1,0 0,0 -1.6,1.7 -2.5,3.8 -2.7,5.9 v 1.1 c 0,0.1 0,0.2 0,0.4 v 0 0 c 0,0.1 0,0.2 0,0.4 -0.2,2.3 -0.9,4.6 -2,6.6 -1.1,2 -2.6,3.9 -4.4,5.3 -1.8,1.5 -3.8,2.6 -6.1,3.2 -2.2,0.7 -4.5,0.9 -6.8,0.7 -0.8,-0.1 -1.5,-0.2 -2.3,-0.4 -0.4,-0.1 -0.9,-0.2 -1.3,-0.4 -1.9,-0.5 -3.8,-0.7 -5.7,-0.6 -5.6,0.1 -11,2.3 -15.1,6.1 -0.1,0.1 -0.2,0.2 -0.3,0.2 -0.1,0.1 -0.3,0.2 -0.4,0.4 -2.3,2.1 -4.1,4.6 -5.3,7.4 -1.3,2.8 -1.9,5.9 -2,8.9 -0.1,3.1 0.5,6.2 1.6,9 1.1,2.9 2.9,5.5 5,7.7 2.2,2.2 4.8,3.9 7.6,5.1 2.9,1.2 5.9,1.7 9,1.7 3.1,-0.1 6.1,-0.7 8.9,-2 2.8,-1.3 5.3,-3.1 7.4,-5.4 0.9,-1 1.8,-2 2.6,-3.1 1.8,-2.7 3.1,-5.7 3.7,-8.9 0.6,-3.2 0.5,-6.5 -0.2,-9.6 -0.1,-0.4 -0.2,-0.8 -0.3,-1.2 0,-0.1 0,-0.1 0,-0.1 0,-0.1 0,-0.1 0,-0.2 v -0.1 c -0.5,-2.2 -0.6,-4.5 -0.2,-6.8 0.4,-2.3 1.2,-4.5 2.4,-6.5 1.2,-2 2.8,-3.7 4.7,-5 1.9,-1.3 4,-2.3 6.3,-2.8 0.8,-0.2 1.6,-0.3 2.5,-0.4 l 0.4,-0.1 c 0.4,0 0.7,-0.1 1.1,0 h 0.1 c 2.3,-0.2 4.4,-1.2 6,-2.8 l 0.1,-0.1 v -0.1 0 c 0.3,-0.4 0.6,-0.7 0.9,-1.1 0.8,-1.1 1.3,-2.2 1.6,-3.5 0.3,-1.3 0.3,-2.6 0.1,-3.8 -0.2,-1.3 -0.7,-2.5 -1.4,-3.6 -0.7,-1.1 -1.6,-2 -2.7,-2.8 -1.9,-1.3 -4.2,-2 -6.5,-1.8 -2.3,0.2 -4.5,1.2 -6.1,2.8 -0.1,0.1 -0.2,0.2 -0.2,0.3 z M 100.6,149.8 c -5.4,0 -10.7,2.1 -14.6,6 -3.9,3.8 -6.2,9 -6.3,14.5 0,12.1 8.6,20.5 20.9,20.5 5.4,0 10.7,-2.1 14.6,-6 3.9,-3.8 6.2,-9 6.3,-14.5 0,-12.1 -8.6,-20.5 -20.9,-20.5 z m 8.7,20.5 c 0.1,1.2 -0.1,2.4 -0.5,3.5 -0.4,1.1 -1,2.1 -1.9,3 -0.8,0.8 -1.8,1.5 -2.9,2 -1.1,0.4 -2.2,0.7 -3.4,0.6 -1.2,0 -2.3,-0.2 -3.4,-0.7 -1.1,-0.5 -2.1,-1.1 -2.9,-2 -0.8,-0.8 -1.4,-1.8 -1.9,-2.9 -0.4,-1.1 -0.6,-2.3 -0.5,-3.4 -0.1,-1.2 0.1,-2.4 0.5,-3.5 0.4,-1.1 1,-2.1 1.9,-3 0.8,-0.8 1.8,-1.5 2.9,-2 1.1,-0.4 2.2,-0.7 3.4,-0.6 1.2,0 2.3,0.2 3.4,0.6 1.1,0.4 2.1,1.1 2.9,2 0.8,0.9 1.4,1.9 1.9,3 0.4,1 0.6,2.2 0.5,3.4 z m 53.6,-14.8 c 4,-3.7 9.2,-5.7 14.6,-5.7 12.2,0 20.7,8.4 20.6,20.6 v 17.8 c 0,0.5 -0.2,1 -0.5,1.3 -0.3,0.3 -0.8,0.5 -1.3,0.5 h -8.6 c -0.5,0 -0.9,-0.2 -1.3,-0.5 -0.3,-0.3 -0.5,-0.8 -0.5,-1.3 v -17.8 c 0.1,-1.2 -0.1,-2.4 -0.5,-3.5 -0.4,-1.1 -1,-2.1 -1.9,-3 -0.8,-0.8 -1.8,-1.5 -2.9,-2 -1.1,-0.4 -2.2,-0.7 -3.4,-0.6 -1.2,0 -2.3,0.2 -3.4,0.6 -1.1,0.4 -2.1,1.1 -2.9,2 -0.8,0.9 -1.5,1.9 -1.9,3 -0.4,1.1 -0.6,2.3 -0.5,3.5 v 17.8 c 0,0.5 -0.2,0.9 -0.5,1.3 -0.3,0.3 -0.8,0.5 -1.3,0.5 h -8.5 c -0.5,0 -0.9,-0.2 -1.3,-0.5 -0.3,-0.3 -0.5,-0.8 -0.5,-1.3 v -17.8 c 0.1,-1.2 -0.1,-2.4 -0.5,-3.5 -0.4,-1.1 -1,-2.1 -1.9,-3 -0.8,-0.8 -1.8,-1.5 -2.9,-2 -1.1,-0.4 -2.3,-0.6 -3.4,-0.6 -1.2,0 -2.3,0.2 -3.4,0.6 -1.1,0.4 -2.1,1.1 -2.9,2 -0.8,0.8 -1.4,1.9 -1.9,3 -0.4,1.1 -0.6,2.3 -0.5,3.5 v 17.8 c 0,0.5 -0.2,0.9 -0.5,1.3 -0.3,0.3 -0.8,0.5 -1.3,0.5 h -8.6 c -0.3,0 -0.5,0 -0.7,-0.1 -0.2,-0.1 -0.4,-0.2 -0.6,-0.4 -0.2,-0.2 -0.3,-0.4 -0.4,-0.6 -0.1,-0.2 -0.1,-0.5 -0.1,-0.7 v -17.8 c 0,-12.7 10.9,-20.5 21.1,-20.5 5.6,-0.3 11,1.8 15,5.6 z m 61.6,-5.7 c -5.4,0 -10.7,2.1 -14.6,6 -3.9,3.8 -6.2,9 -6.3,14.5 0,12.1 8.6,20.5 20.9,20.5 5.4,0 10.7,-2.1 14.6,-6 3.9,-3.8 6.2,-9 6.3,-14.5 0,-12.1 -8.6,-20.5 -20.9,-20.5 z m 8.7,20.5 c 0.1,1.2 -0.1,2.4 -0.5,3.5 -0.4,1.1 -1,2.1 -1.9,3 -0.8,0.8 -1.8,1.5 -2.9,2 -1.1,0.4 -2.2,0.7 -3.4,0.6 -2.1,-0.3 -4.1,-1.4 -5.5,-3 -1.4,-1.6 -2.2,-3.7 -2.2,-5.9 0,-2.2 0.8,-4.3 2.2,-5.9 1.4,-1.6 3.4,-2.7 5.5,-3 1.2,0 2.3,0.2 3.4,0.6 1.1,0.4 2.1,1.1 2.9,1.9 0.8,0.8 1.5,1.8 1.9,2.9 0.4,0.9 0.5,2.1 0.5,3.3 z m 38.7,-20.6 c 2.9,0.1 5.6,0.9 8.1,2.3 v -19.7 c 0,-0.5 0.2,-0.9 0.5,-1.2 0.3,-0.3 0.8,-0.5 1.2,-0.5 h 8.8 c 0.5,0 0.9,0.2 1.2,0.5 0.3,0.3 0.5,0.8 0.5,1.2 v 38 c -0.1,5.5 -2.4,10.7 -6.3,14.5 -3.9,3.8 -9.1,6 -14.6,6 -12.3,0 -20.9,-8.4 -20.9,-20.5 0,-2.8 0.6,-5.5 1.7,-8.1 1.1,-2.5 2.7,-4.8 4.7,-6.7 2,-1.9 4.4,-3.4 6.9,-4.4 2.7,-1 5.4,-1.5 8.2,-1.4 z m 7.6,24 c 0.4,-1.1 0.6,-2.3 0.5,-3.5 0.1,-1.2 -0.1,-2.3 -0.5,-3.4 -0.4,-1.1 -1.1,-2.1 -1.9,-2.9 -0.8,-0.8 -1.8,-1.5 -2.9,-1.9 -1.1,-0.4 -2.2,-0.6 -3.4,-0.6 -2.1,0.3 -4.1,1.4 -5.5,3 -1.4,1.6 -2.2,3.7 -2.2,5.9 0,2.2 0.8,4.3 2.2,5.9 1.4,1.6 3.4,2.7 5.5,3 1.2,0 2.3,-0.2 3.4,-0.6 1.1,-0.4 2.1,-1.1 2.9,-2 0.8,-0.9 1.5,-1.8 1.9,-2.9 z m 38.6,-23.9 c -5.4,0 -10.7,2.1 -14.6,6 -3.9,3.8 -6.2,9 -6.3,14.5 0,12.1 8.6,20.5 20.9,20.5 5.4,0 10.7,-2.1 14.6,-6 3.9,-3.8 6.2,-9 6.3,-14.5 0,-12.1 -8.6,-20.5 -20.9,-20.5 z m 8.7,20.5 c 0.1,1.2 -0.1,2.4 -0.5,3.5 -0.4,1.1 -1,2.1 -1.9,3 -0.8,0.8 -1.8,1.5 -2.9,2 -1.1,0.4 -2.2,0.7 -3.4,0.6 -1.2,0 -2.3,-0.2 -3.4,-0.7 -1.1,-0.5 -2.1,-1.1 -2.9,-2 -0.8,-0.8 -1.4,-1.8 -1.9,-2.9 -0.4,-1.1 -0.6,-2.3 -0.5,-3.4 -0.1,-1.2 0.1,-2.4 0.5,-3.5 0.4,-1.1 1,-2.1 1.9,-3 0.9,-0.9 1.8,-1.5 2.9,-2 1.1,-0.4 2.2,-0.7 3.4,-0.6 1.2,0 2.3,0.2 3.4,0.6 1.1,0.4 2.1,1.1 2.9,2 0.8,0.9 1.4,1.9 1.9,3 0.4,1 0.6,2.2 0.5,3.4 z M 66.1,149.8 h 13.1 c 0.3,0 0.5,0.1 0.7,0.2 0.2,0.1 0.4,0.3 0.5,0.6 0.1,0.2 0.1,0.5 0.1,0.7 0,0.3 -0.1,0.5 -0.3,0.7 l -14.3,14.4 c -0.2,0.2 -0.4,0.5 -0.4,0.9 0,0.3 0.1,0.7 0.3,0.9 l 14.7,20.3 c 0.2,0.2 0.3,0.5 0.3,0.7 0,0.3 0,0.5 -0.1,0.8 -0.1,0.2 -0.3,0.4 -0.5,0.6 -0.2,0.1 -0.5,0.2 -0.8,0.2 H 67.9 c -0.2,0 -0.4,-0.1 -0.6,-0.1 -0.2,-0.1 -0.4,-0.2 -0.5,-0.4 l -9.3,-12.9 c -0.1,-0.2 -0.3,-0.3 -0.4,-0.4 -0.2,-0.1 -0.4,-0.2 -0.6,-0.2 -0.2,0 -0.4,0 -0.6,0.1 -0.2,0.1 -0.4,0.2 -0.5,0.3 l -3.7,3.8 c -0.1,0.1 -0.2,0.3 -0.3,0.4 -0.1,0.2 -0.1,0.3 -0.1,0.5 v 7.5 c 0,0.2 0,0.4 -0.1,0.5 -0.1,0.2 -0.2,0.3 -0.3,0.4 -0.1,0.1 -0.3,0.2 -0.5,0.3 -0.2,0.1 -0.3,0.1 -0.5,0.1 h -9.4 c -0.2,0 -0.4,0 -0.5,-0.1 -0.2,-0.1 -0.3,-0.2 -0.5,-0.3 -0.1,-0.1 -0.2,-0.3 -0.3,-0.4 -0.1,-0.2 -0.1,-0.3 -0.1,-0.5 v -57.5 c 0,-0.2 0,-0.4 0.1,-0.5 0.1,-0.2 0.2,-0.3 0.3,-0.5 0.1,-0.1 0.3,-0.2 0.4,-0.3 0.2,-0.1 0.3,-0.1 0.5,-0.1 h 9.5 c 0.2,0 0.4,0 0.5,0.1 0.2,0.1 0.3,0.2 0.4,0.3 0.1,0.1 0.2,0.3 0.3,0.5 0.1,0.2 0.1,0.4 0.1,0.5 v 29 c 0,0.3 0.1,0.5 0.2,0.7 0.1,0.2 0.3,0.4 0.6,0.5 0.2,0.1 0.5,0.1 0.7,0.1 0.2,0 0.5,-0.1 0.7,-0.3 L 65,150.2 c 0.4,-0.3 0.8,-0.4 1.1,-0.4 z M 118.8,240 111,211.9 h 4.5 l 5.5,21.8 h 0.3 l 5.7,-21.8 h 4.4 l 5.7,21.8 h 0.3 l 5.5,-21.8 h 4.5 l -7.8,28.1 h -4.3 l -5.9,-21.1 H 129 l -5.9,21.1 z m 32.2,0 h -4.5 l 10.1,-28.1 h 4.9 l 10.1,28.1 h -4.5 l -2.6,-7.4 h -11 z m 8.2,-23 4.1,12 h -8.5 l 4.2,-12 z m 16.5,-5.1 V 240 h 17 v -3.7 H 180 v -24.5 z m 21.8,28.1 v -28.1 h 4.2 v 24.5 h 12.7 v 3.7 z m 21.8,-28.1 V 240 h 17.8 v -3.7 h -13.5 v -8.6 H 236 v -3.6 h -12.5 v -8.6 H 237 v -3.7 h -17.7 z m 21.9,3.6 v -3.7 H 263 v 3.7 h -8.8 V 240 H 250 v -24.5 z"
   id="path26" />
		</g>
	</g>
	<g
   class="st1"
   id="g40">
		<defs
   id="defs33"><rect
     id="SVGID_00000078025310721160864310000006450723773603755138_"
     width="378"
     height="240"
     x="0"
     y="0" /></defs>
		<clipPath
   id="SVGID_00000030460261605846701140000008807173137321046972_">
			<use
   xlink:href="#SVGID_00000078025310721160864310000006450723773603755138_"
   style="overflow:visible"
   id="use35" />
		</clipPath>
		
			<rect
   x="-220"
   y="-69"
   width="739"
   height="339"
   clip-path="url(#SVGID_00000030460261605846701140000008807173137321046972_)"
   id="rect38" />
	</g>
</g>
<g
   id="squeexe">
	<g
   id="logoSVG">
		<g
   id="letters">
			<path
   id="bigX_1_"
   class="st5"
   d="m 258.9,26.4 c -2.6,0 -5.1,1.2 -6.7,3.2 l -49.5,69.5 49.5,67.9 c 1.7,2 4.1,3.1 6.7,3.1 H 331 c 0.2,0 0.4,0.1 0.5,0.3 0.2,0.2 0.3,0.4 0.3,0.7 v 15.5 c 0,0.3 -0.1,0.5 -0.3,0.7 -0.1,0.1 -0.3,0.3 -0.5,0.3 h -73.8 c -7.8,0 -15.2,-2.2 -20.8,-8.6 L 189.8,115.8 145.1,178 c -5.6,6.4 -12.4,9.6 -20.2,9.6 H 48.6 c -0.2,0 -0.4,-0.1 -0.5,-0.3 -0.2,-0.2 -0.3,-0.4 -0.3,-0.7 V 171 c 0,-0.3 0.1,-0.5 0.3,-0.7 0.1,-0.1 0.3,-0.3 0.5,-0.3 h 74.5 c 2.6,0 5.1,-1.1 6.7,-3.1 l 48,-67.5 -48.5,-68.1 c -1.9,-2.2 -3.7,-5 -6.2,-5 H 48.6 C 48.4,26.3 48.2,26.2 48.1,26 48,25.9 47.8,25.7 47.8,25.4 V 9.9 C 47.8,9.7 47.9,9.5 48.1,9.3 48.2,9.1 48.4,9 48.6,9 h 76.2 c 7.8,0 14,4.3 19.6,10.6 l 46,62.5 46.6,-63.5 c 5.6,-6.3 12.3,-9.5 20.1,-9.5 H 331 c 0.5,0 0.8,0.4 0.8,0.8 v 15.7 c 0,0.2 -0.1,0.4 -0.3,0.5 -0.1,0.1 -0.3,0.3 -0.5,0.3 z" />
		</g>
	</g>
</g>
<g
   id="g74">
	<g
   class="st6"
   id="g66">
		<path
   class="st7"
   d="m 55.5,209.4 c 1,-1 2.2,-1.4 3.5,-1.4 h 7.6 c 0.1,0 0.1,0 0.1,0 0,0 0,0.1 0,0.1 v 18.7 c 0,0 0,0.1 0,0.1 0,0 -0.1,0 -0.1,0 h -3.5 c 0,0 -0.1,0 -0.1,0 0,0 0,-0.1 0,-0.1 v -15.6 h -3.2 c -0.4,0 -0.8,0.2 -1.1,0.5 l -15.3,15.2 c 0,0 -0.1,0 -0.1,0 h -4.9 c -0.1,0 -0.1,0 -0.2,-0.1 -0.1,-0.1 0,-0.1 0,-0.2 z"
   id="path48" />
		<path
   class="st7"
   d="m 99.6,226.8 c 0,0 0,0.1 0,0.1 0,0 -0.1,0 -0.1,0 H 77.9 c -1.5,0 -2.8,-0.5 -3.9,-1.6 -1.1,-1.1 -1.6,-2.3 -1.6,-3.9 V 208 c 0,-0.1 0,-0.1 0,-0.1 0,0 0.1,0 0.1,0 H 76 c 0.1,0 0.1,0 0.1,0 0,0 0,0.1 0,0.1 v 14 c 0,0.4 0.2,0.8 0.5,1.2 0.3,0.3 0.7,0.5 1.2,0.5 h 21.6 c 0,0 0.1,0 0.1,0 0,0 0,0.1 0,0.1 v 3 z"
   id="path50" />
		<path
   class="st7"
   d="m 132.5,226.8 c 0,0 0,0.1 0,0.1 0,0 -0.1,0 -0.1,0 h -21.6 c -1.5,0 -2.8,-0.5 -3.9,-1.6 -1.1,-1.1 -1.6,-2.3 -1.6,-3.9 V 208 c 0,-0.1 0,-0.1 0,-0.1 0,0 0.1,0 0.1,0 h 3.5 c 0.1,0 0.1,0 0.1,0 0,0 0,0.1 0,0.1 v 14 c 0,0.4 0.2,0.8 0.5,1.2 0.3,0.3 0.7,0.5 1.2,0.5 h 21.6 c 0,0 0.1,0 0.1,0 0,0 0,0.1 0,0.1 v 3 z"
   id="path52" />
		<path
   class="st7"
   d="m 142,215.8 h 20.5 c 0.1,0 0.1,0 0.1,0 0,0 0,0.1 0,0.1 v 2.9 c 0,0.1 0,0.1 0,0.1 0,0 -0.1,0 -0.1,0 H 142 v 3 c 0,0.4 0.2,0.8 0.5,1.2 0.3,0.3 0.7,0.5 1.2,0.5 h 21.6 c 0.1,0 0.1,0 0.1,0 0,0 0,0.1 0,0.1 v 2.9 c 0,0.1 0,0.1 0,0.1 0,0 -0.1,0 -0.1,0 h -21.6 c -1.5,0 -2.8,-0.5 -3.9,-1.6 -1.1,-1.1 -1.6,-2.3 -1.6,-3.9 v -8.1 c 0,-1.5 0.5,-2.8 1.6,-3.9 1.1,-1.1 2.3,-1.6 3.9,-1.6 h 21.6 c 0.1,0 0.1,0 0.1,0 0,0 0,0.1 0,0.1 v 2.9 c 0,0 0,0.1 0,0.1 0,0 -0.1,0 -0.1,0 h -21.6 c -0.5,0 -0.8,0.2 -1.2,0.5 -0.3,0.3 -0.5,0.7 -0.5,1.2 z"
   id="path54" />
		<path
   class="st7"
   d="m 171.2,208.1 c 0,-0.1 0,-0.1 0,-0.1 0,0 0.1,0 0.1,0 h 26.9 c 0,0 0.1,0 0.1,0 0,0 0,0.1 0,0.1 v 2.9 c 0,0 0,0.1 0,0.1 0,0 -0.1,0 -0.1,0 h -11.5 v 15.6 c 0,0.1 0,0.1 0,0.1 0,0 -0.1,0 -0.1,0 H 183 c -0.1,0 -0.1,0 -0.1,0 0,0 0,-0.1 0,-0.1 v -15.6 h -11.5 c 0,0 -0.1,0 -0.1,0 0,0 0,-0.1 0,-0.1 v -2.9 z"
   id="path56" />
		<path
   class="st7"
   d="m 228.5,215.8 h 24.3 c 0,0 0.1,0 0.1,0 0,0 0,0.1 0,0.1 v 2.9 c 0,0.1 0,0.1 0,0.1 0,0 -0.1,0 -0.1,0 h -3.7 v 3 c 0,1.4 -0.5,2.5 -1.4,3.5 -1,1 -2.1,1.4 -3.5,1.4 H 228 c -1.4,0 -2.5,-0.5 -3.5,-1.4 -1,-1 -1.4,-2.1 -1.4,-3.5 v -1.4 c 0,-1.3 0.4,-2.3 1.3,-3.3 -0.8,-0.9 -1.3,-2 -1.3,-3.3 v -1.4 c 0,-1.3 0.5,-2.5 1.4,-3.5 1,-1 2.1,-1.4 3.5,-1.4 h 17.2 c 0,0 0.1,0 0.1,0 0,0 0,0.1 0,0.1 v 2.9 c 0,0.1 0,0.1 0,0.1 0,0 -0.1,0 -0.1,0 h -16.7 c -0.5,0 -0.8,0.2 -1.2,0.5 -0.4,0.3 -0.5,0.7 -0.5,1.1 v 1.4 c 0,0.4 0.2,0.8 0.5,1.2 0.4,0.7 0.8,0.9 1.2,0.9 z m 16.9,6.2 v -3 h -16.8 c -0.5,0 -0.8,0.2 -1.2,0.5 -0.4,0.3 -0.5,0.7 -0.5,1.2 v 1.4 c 0,0.4 0.2,0.8 0.5,1.2 0.3,0.3 0.7,0.5 1.2,0.5 h 15.2 c 0.4,0 0.8,-0.2 1.1,-0.5 0.3,-0.4 0.5,-0.8 0.5,-1.3 z"
   id="path58" />
		<path
   class="st7"
   d="m 299.5,207.9 c 1.5,0 2.8,0.5 3.9,1.6 1.1,1.1 1.6,2.3 1.6,3.9 v 8.1 c 0,1.5 -0.5,2.8 -1.6,3.9 -1.1,1.1 -2.3,1.6 -3.9,1.6 h -21.6 c 0,0 -0.1,0 -0.1,0 0,0 0,-0.1 0,-0.1 v -18.7 c 0,-0.1 0,-0.1 0,-0.1 0,0 0.1,0 0.1,0 h 21.6 z m 1.6,4.9 c 0,-0.4 -0.2,-0.8 -0.5,-1.2 -0.3,-0.3 -0.7,-0.5 -1.2,-0.5 h -17.9 v 12.5 h 17.9 c 0.5,0 0.8,-0.2 1.2,-0.5 0.3,-0.3 0.5,-0.7 0.5,-1.2 z"
   id="path60" />
		<path
   class="st7"
   d="M 314.5,215.8 H 335 c 0.1,0 0.1,0 0.1,0 0,0 0,0.1 0,0.1 v 2.9 c 0,0.1 0,0.1 0,0.1 0,0 -0.1,0 -0.1,0 h -20.5 v 3 c 0,0.4 0.2,0.8 0.5,1.2 0.3,0.3 0.7,0.5 1.2,0.5 h 21.6 c 0.1,0 0.1,0 0.1,0 0,0 0,0.1 0,0.1 v 2.9 c 0,0.1 0,0.1 0,0.1 0,0 -0.1,0 -0.1,0 h -21.6 c -1.5,0 -2.8,-0.5 -3.9,-1.6 -1.1,-1.1 -1.6,-2.3 -1.6,-3.9 v -8.1 c 0,-1.5 0.5,-2.8 1.6,-3.9 1.1,-1.1 2.3,-1.6 3.9,-1.6 h 21.6 c 0.1,0 0.1,0 0.1,0 0,0 0,0.1 0,0.1 v 2.9 c 0,0 0,0.1 0,0.1 0,0 -0.1,0 -0.1,0 h -21.6 c -0.5,0 -0.8,0.2 -1.2,0.5 -0.3,0.3 -0.5,0.7 -0.5,1.2 z"
   id="path62" />
		<path
   class="st7"
   d="m 365.3,211.2 c -0.5,0 -0.9,0.2 -1.3,0.6 l -4.6,5.7 4.6,5.7 c 0.4,0.4 0.8,0.6 1.3,0.6 h 5.3 c 0,0 0.1,0 0.1,0 0,0 0,0.1 0,0.1 v 2.9 c 0,0.1 0,0.1 0,0.1 0,0 -0.1,0 -0.1,0 H 365 c -1.5,0 -2.7,-0.6 -3.8,-1.8 l -4,-4.9 -4,4.9 c -1.1,1.2 -2.3,1.8 -3.8,1.8 h -5.6 c 0,0 -0.1,0 -0.1,0 0,0 0,-0.1 0,-0.1 v -2.9 c 0,0 0,-0.1 0,-0.1 0,0 0.1,0 0.1,0 h 5.3 c 0.5,0 0.9,-0.2 1.3,-0.6 l 4.6,-5.7 -4.6,-5.7 c -0.4,-0.4 -0.8,-0.6 -1.3,-0.6 h -5.3 c 0,0 -0.1,0 -0.1,0 0,0 0,-0.1 0,-0.1 v -3 c 0,0 0,-0.1 0,-0.1 0,0 0.1,0 0.1,0 h 5.6 c 1.5,0 2.7,0.6 3.8,1.8 l 4,4.9 4,-4.9 c 1.1,-1.2 2.3,-1.8 3.8,-1.8 h 5.6 c 0,0 0.1,0 0.1,0 0,0 0,0.1 0,0.1 v 3 c 0,0 0,0.1 0,0.1 0,0 -0.1,0 -0.1,0 z"
   id="path64" />
	</g>
	<polygon
   class="st8"
   points="72.1,214.6 32.7,214.6 "
   id="polygon68" />
	<g
   class="st6"
   id="g72">
		<path
   class="st7"
   d="m 18.8,224.3 v -14.4 c 0,0 0,-0.1 0.1,-0.1 0,0 0.1,0 0.2,0 h 4 c 0.1,0 0.1,0 0.2,0 0,0 0.1,0.1 0.1,0.1 v 14.4 h 4.1 c 0.6,0 1.1,-0.1 1.6,-0.3 0.4,-0.2 0.7,-0.5 0.7,-0.8 V 208 c 0,0 0,-0.1 0.1,-0.1 0,0 0.1,0 0.1,0 h 4 c 0.1,0 0.1,0 0.2,0 0.1,0 0.1,0.1 0.1,0.1 v 15.1 c 0,1.1 -0.7,2 -2.2,2.7 -1.4,0.7 -3.2,1.1 -5.2,1.1 h -11 c -2,0 -3.8,-0.4 -5.2,-1.1 -1.4,-0.7 -2.2,-1.6 -2.2,-2.7 V 208 c 0,0 0,-0.1 0.1,-0.1 0.1,0 0.1,0 0.2,0 h 4 c 0.1,0 0.1,0 0.1,0 0,0 0.1,0.1 0.1,0.1 v 15.1 c 0,0.3 0.2,0.6 0.7,0.8 0.4,0.2 1,0.3 1.6,0.3 h 3.5 z"
   id="path70" />
	</g>
</g>
</svg>
